<svg width="83" height="91" viewBox="0 0 83 91" fill="none" xmlns="http://www.w3.org/2000/svg">
<path d="M76.3847 24.5029C87.5355 46.3341 83.1879 74.4231 62.0076 85.9166C40.9895 97.3222 16.4461 84.6976 5.38059 63.0335C-5.26139 42.1987 0.367347 15.7806 20.581 4.81158C40.9632 -6.24891 65.654 3.49427 76.3847 24.5029Z" fill="#F2D8A7"/>
<path d="M26.4789 66.9275C29.9069 66.9275 32.6858 64.1485 32.6858 60.7206C32.6858 57.2926 29.9069 54.5137 26.4789 54.5137C23.051 54.5137 20.272 57.2926 20.272 60.7206C20.272 64.1485 23.051 66.9275 26.4789 66.9275Z" stroke="#194973" stroke-width="2" stroke-linecap="round" stroke-linejoin="round"/>
<path d="M20.272 60.7206V26.5827C20.272 23.1534 23.0496 20.3758 26.4789 20.3758C29.9082 20.3758 32.6858 23.1534 32.6858 26.5827V60.7206" stroke="#194973" stroke-width="2" stroke-linecap="round" stroke-linejoin="round"/>
<path d="M26.4789 66.9275H66.8237V31.2379H32.6858" stroke="#194973" stroke-width="2" stroke-linecap="round" stroke-linejoin="round"/>
<path d="M55.9617 37.4448L59.0651 40.5482L55.9617 43.6517" stroke="#194973" stroke-width="2" stroke-linecap="round" stroke-linejoin="round"/>
<path d="M59.0651 40.5482H41.9962V60.7206" stroke="#194973" stroke-width="2" stroke-linecap="round" stroke-linejoin="round"/>
<path d="M45.0996 57.6171L41.9961 60.7206L38.8927 57.6171" stroke="#194973" stroke-width="2" stroke-linecap="round" stroke-linejoin="round"/>
</svg>
