<svg width="90" height="90" viewBox="0 0 90 90" fill="none" xmlns="http://www.w3.org/2000/svg">
<path opacity="0.939318" d="M50.4567 0.441459C62.0769 1.97748 72.7663 7.64614 80.0705 16.8505C87.4554 26.1565 91.2319 38.0264 89.64 49.8178C88.0646 61.4879 80.9154 71.3346 71.7271 78.6531C62.4468 86.0449 51.1942 90.9991 39.4065 89.829C27.3482 88.6319 16.4007 82.09 9.03345 72.4296C1.72608 62.8478 -1.14623 50.662 0.410216 38.6949C1.95651 26.8058 7.83961 15.8206 17.3405 8.55851C26.7397 1.37413 38.7453 -1.10661 50.4567 0.441459Z" fill="#F2D8A7"/>
<g clip-path="url(#clip0_21_2405)">
<path d="M28.6033 64.4834C31.7733 64.4834 34.3431 61.9136 34.3431 58.7436C34.3431 55.5736 31.7733 53.0038 28.6033 53.0038C25.4333 53.0038 22.8635 55.5736 22.8635 58.7436C22.8635 61.9136 25.4333 64.4834 28.6033 64.4834Z" stroke="#194973" stroke-width="2" stroke-linecap="round" stroke-linejoin="round"/>
<path d="M22.8635 58.7436V27.1747C22.8635 24.0035 25.4321 21.4349 28.6033 21.4349C31.7746 21.4349 34.3431 24.0035 34.3431 27.1747V58.7436" stroke="#194973" stroke-width="2" stroke-linecap="round" stroke-linejoin="round"/>
<path d="M28.6033 64.4834H65.912V31.4796H60.1722" stroke="#194973" stroke-width="2" stroke-linecap="round" stroke-linejoin="round"/>
<path d="M50.1276 35.7844C47.7456 35.7844 45.8227 33.8616 45.8227 31.4796C45.8227 29.0975 47.7456 27.1747 50.1276 27.1747C52.5096 27.1747 54.4324 29.0975 54.4324 31.4796" stroke="#194973" stroke-width="2" stroke-linecap="round" stroke-linejoin="round"/>
<path d="M50.1276 35.7844C52.5096 35.7844 54.4324 37.7073 54.4324 40.0893C54.4324 42.4713 52.5096 44.3941 50.1276 44.3941C47.7456 44.3941 45.8227 42.4713 45.8227 40.0893" stroke="#194973" stroke-width="2" stroke-linecap="round" stroke-linejoin="round"/>
<path d="M50.1275 27.1747V24.3048" stroke="#194973" stroke-width="2" stroke-linecap="round" stroke-linejoin="round"/>
<path d="M50.1275 47.264V44.3941" stroke="#194973" stroke-width="2" stroke-linecap="round" stroke-linejoin="round"/>
<path d="M34.3431 31.4796H40.0829" stroke="#194973" stroke-width="2" stroke-linecap="round" stroke-linejoin="round"/>
<path d="M50.1275 55.8737C50.92 55.8737 51.5625 55.2312 51.5625 54.4387C51.5625 53.6462 50.92 53.0038 50.1275 53.0038C49.335 53.0038 48.6926 53.6462 48.6926 54.4387C48.6926 55.2312 49.335 55.8737 50.1275 55.8737Z" fill="#194973"/>
<path d="M55.8674 55.8737C56.6599 55.8737 57.3023 55.2312 57.3023 54.4387C57.3023 53.6462 56.6599 53.0038 55.8674 53.0038C55.0749 53.0038 54.4324 53.6462 54.4324 54.4387C54.4324 55.2312 55.0749 55.8737 55.8674 55.8737Z" fill="#194973"/>
<path d="M44.3877 55.8737C45.1802 55.8737 45.8227 55.2312 45.8227 54.4387C45.8227 53.6462 45.1802 53.0038 44.3877 53.0038C43.5952 53.0038 42.9528 53.6462 42.9528 54.4387C42.9528 55.2312 43.5952 55.8737 44.3877 55.8737Z" fill="#194973"/>
</g>
<defs>
<clipPath id="clip0_21_2405">
<rect width="45.9184" height="45.9184" fill="white" transform="translate(21.4286 20)"/>
</clipPath>
</defs>
</svg>
