<svg width="90" height="90" viewBox="0 0 90 90" fill="none" xmlns="http://www.w3.org/2000/svg">
<path d="M62.107 1.5924C68.0707 3.99139 72.0681 9.38362 76.2906 14.1483C80.3172 18.692 84.0532 23.4424 86.396 29.0005C88.7622 34.6139 90.0568 40.5968 89.9981 46.6678C89.9383 52.849 88.7814 59.0234 86.0517 64.5993C83.299 70.2223 78.9744 74.895 74.1719 78.9964C69.2829 83.1715 63.9601 87.0378 57.7215 88.7934C51.4528 90.5575 44.7965 90.1525 38.3675 89.0723C31.9915 88.001 25.7321 86.0716 20.3798 82.5191C15.0759 78.9987 11.1204 73.9676 7.66106 68.6914C4.21971 63.4426 0.954683 57.8895 0.174676 51.7021C-0.597102 45.58 1.32641 39.5234 3.24317 33.6464C5.10441 27.9397 7.58301 22.4846 11.2653 17.697C15.0075 12.8315 19.4332 8.42722 24.8925 5.49878C30.4088 2.5398 36.6557 1.37803 42.9119 0.721315C49.3509 0.0454172 56.1183 -0.816648 62.107 1.5924Z" fill="#F2D8A7"/>
<g clip-path="url(#clip0_21_2408)">
<path d="M30.5085 68.6441C33.8783 68.6441 36.6102 65.9122 36.6102 62.5424C36.6102 59.1725 33.8783 56.4407 30.5085 56.4407C27.1386 56.4407 24.4068 59.1725 24.4068 62.5424C24.4068 65.9122 27.1386 68.6441 30.5085 68.6441Z" stroke="#194973" stroke-width="2" stroke-linecap="round" stroke-linejoin="round"/>
<path d="M24.4068 62.5424V28.983C24.4068 25.6119 27.1373 22.8813 30.5085 22.8813C33.8797 22.8813 36.6102 25.6119 36.6102 28.983V62.5424" stroke="#194973" stroke-width="2" stroke-linecap="round" stroke-linejoin="round"/>
<path d="M30.5085 68.6441H70.1695V33.5593H67.1186" stroke="#194973" stroke-width="2" stroke-linecap="round" stroke-linejoin="round"/>
<path d="M59.4915 25.9322H51.8644C51.0219 25.9322 50.339 26.6151 50.339 27.4576V67.1186C50.339 67.9611 51.0219 68.6441 51.8644 68.6441H59.4915C60.334 68.6441 61.0169 67.9611 61.0169 67.1186V27.4576C61.0169 26.6151 60.334 25.9322 59.4915 25.9322Z" stroke="#194973" stroke-width="2" stroke-linecap="round" stroke-linejoin="round"/>
<path d="M61.0169 47.2881H56.4407" stroke="#194973" stroke-width="2" stroke-linecap="round" stroke-linejoin="round"/>
<path d="M61.0169 36.6102H56.4407" stroke="#194973" stroke-width="2" stroke-linecap="round" stroke-linejoin="round"/>
<path d="M61.0169 59.4915H56.4407" stroke="#194973" stroke-width="2" stroke-linecap="round" stroke-linejoin="round"/>
<path d="M36.6102 33.5593H44.2373" stroke="#194973" stroke-width="2" stroke-linecap="round" stroke-linejoin="round"/>
</g>
<defs>
<clipPath id="clip0_21_2408">
<rect width="48.8136" height="48.8136" fill="white" transform="translate(22.8812 21.356)"/>
</clipPath>
</defs>
</svg>
