<?xml version="1.0" encoding="UTF-8"?><svg id="Layer_2" xmlns="http://www.w3.org/2000/svg" viewBox="0 0 58.56 12.18"><defs><style>.cls-1{fill:#91b7d9;}.cls-2{fill:#b6dbf2;}.cls-3{fill:#194973;}</style></defs><g id="Layer_1-2"><path class="cls-2" d="m43.22,8.79c.48-.32.93-.71,1.38-1.19.11-.11.08-.26-.03-.37-.11-.11-.26-.08-.37.03-.37.42-.77.77-1.19,1.06l-2.06-4.45c.29-.24.5-.58.56-1.01.03-.13-.08-.26-.24-.29-.19-.03-.32.08-.32.21-.08.53-.53.93-1.06.93-.58,0-1.06-.48-1.06-1.06s.48-1.06,1.06-1.06c.29,0,.58.13.79.34.11.11.26.11.37.03.11-.11.11-.26.03-.37-.24-.26-.56-.45-.93-.5V.26c0-.16-.11-.26-.26-.26s-.26.11-.26.26v.82c-.74.13-1.32.77-1.32,1.56,0,.48.21.93.56,1.22l-2.06,4.45c-.42-.29-.82-.64-1.19-1.06-.11-.11-.26-.11-.37-.03-.11.11-.11.26-.03.37.42.48.87.87,1.38,1.19l-1.43,3.02c-.05.13,0,.29.13.34.03.03.08.03.11.03.11,0,.19-.05.24-.16l1.38-2.97c.87.48,1.85.74,2.89.74s2.01-.24,2.89-.74l1.38,2.97c.05.11.13.16.24.16.03,0,.08,0,.11-.03.13-.05.19-.21.13-.34l-1.4-3.02Zm-3.34.48c-.98,0-1.85-.21-2.65-.69l2.09-4.47c.19.08.37.11.58.11s.4-.03.58-.11l2.04,4.47c-.79.48-1.67.69-2.65.69h0Z"/><path class="cls-3" d="m.86,11.38c-.28.01-.49-.06-.64-.21-.15-.16-.22-.35-.22-.6,0-.19.05-.35.16-.49.1-.14.26-.21.47-.23l.29-.02c.26-.01.44-.07.55-.18.11-.11.17-.29.17-.53v-4.26c0-.31.08-.55.25-.72.17-.17.4-.25.71-.25s.54.08.71.25c.17.17.25.4.25.72v4.23c0,1.42-.77,2.18-2.31,2.27l-.37.02Z"/><path class="cls-3" d="m5.86,11.3c-.66,0-1-.33-1-.99v-5.34c0-.66.33-.99,1-.99h3.52c.5,0,.75.24.75.73s-.25.75-.75.75h-2.69v1.39h2.46c.5,0,.75.25.75.74s-.25.74-.75.74h-2.46v1.5h2.69c.5,0,.75.25.75.74s-.25.74-.75.74h-3.52Z"/><path class="cls-3" d="m12.13,11.39c-.6,0-.89-.3-.89-.9v-5.65c0-.3.08-.54.23-.7.15-.16.35-.24.6-.24.22,0,.39.04.51.12.12.08.26.22.42.41l3,3.75v-3.39c0-.59.29-.89.88-.89.29,0,.51.08.66.23.15.16.22.38.22.66v5.75c0,.26-.07.47-.21.63-.14.16-.33.23-.56.23s-.42-.04-.55-.12c-.14-.08-.28-.22-.43-.41l-3-3.75v3.38c0,.6-.29.9-.88.9Z"/><path class="cls-3" d="m22.83,11.41c-.84,0-1.55-.16-2.13-.47-.58-.31-1.03-.75-1.33-1.31s-.46-1.21-.46-1.96.16-1.45.48-2.02c.32-.57.78-1.01,1.38-1.32.6-.31,1.33-.47,2.18-.47.35,0,.7.03,1.06.1.36.07.71.19,1.06.37.18.08.3.2.37.35.07.15.09.31.06.47-.02.17-.08.31-.18.44-.1.13-.22.22-.38.26-.16.05-.33.03-.53-.06-.43-.2-.91-.3-1.44-.3-.7,0-1.22.19-1.56.56s-.51.91-.51,1.62.17,1.24.52,1.6c.35.36.86.54,1.54.54.32,0,.67-.05,1.07-.15v-1.15h-.73c-.49,0-.74-.22-.74-.67s.25-.66.74-.66h1.54c.5,0,.75.25.75.75v2.29c0,.21-.04.38-.13.53s-.22.25-.41.31c-.33.11-.69.2-1.06.26-.38.06-.76.09-1.14.09Z"/><path class="cls-3" d="m27.19,11.39c-.33,0-.56-.11-.72-.33-.15-.22-.15-.5,0-.83l2.58-5.56c.12-.27.28-.47.46-.59s.39-.19.63-.19.44.06.62.19.33.32.46.59l2.58,5.56c.16.34.17.62.02.83-.14.22-.37.33-.68.33-.28,0-.49-.06-.64-.19s-.28-.33-.4-.6l-.33-.79h-3.27l-.33.79c-.12.28-.25.48-.38.6s-.33.19-.6.19Zm2.94-5.41l-1,2.38h2.01l-1-2.38h-.02Z"/><path class="cls-1" d="m46.94,11.37c-.36,0-.54-.18-.54-.55v-6.29c0-.37.18-.55.55-.55h2.48c.79,0,1.4.2,1.83.59s.64.94.64,1.64-.21,1.26-.64,1.65-1.04.59-1.83.59h-1.95v2.37c0,.37-.18.55-.54.55Zm.54-3.78h1.79c1.05,0,1.58-.46,1.58-1.38s-.53-1.37-1.58-1.37h-1.79v2.75Z"/><path class="cls-1" d="m53.6,11.37c-.36,0-.54-.18-.54-.55v-6.29c0-.37.18-.55.55-.55h2.48c.79,0,1.4.2,1.83.59s.64.94.64,1.64-.21,1.26-.64,1.65-1.04.59-1.83.59h-1.95v2.37c0,.37-.18.55-.54.55Zm.54-3.78h1.79c1.05,0,1.58-.46,1.58-1.38s-.53-1.37-1.58-1.37h-1.79v2.75Z"/></g></svg>