<svg width="24" height="24" viewBox="0 0 24 24" fill="none" xmlns="http://www.w3.org/2000/svg">
<path fill-rule="evenodd" clip-rule="evenodd" d="M5.4616 2.24996C5.48313 2.24997 5.50491 2.24998 5.52697 2.24998C5.5473 2.24998 5.56737 2.24998 5.58717 2.24997C5.91931 2.24982 6.17764 2.24971 6.41634 2.29183C7.31576 2.45055 8.07769 3.04545 8.44981 3.87952C8.54857 4.10087 8.61111 4.35152 8.69153 4.67378C8.69632 4.69299 8.70118 4.71246 8.70611 4.73219L9.11973 6.38666L9.12878 6.42285C9.26887 6.98313 9.38776 7.45864 9.44494 7.86151C9.50582 8.2904 9.50758 8.70015 9.37068 9.12067C9.23377 9.54119 8.99111 9.87136 8.6894 10.1822C8.40599 10.4742 8.02993 10.7886 7.58684 11.159L7.55823 11.1829L5.946 12.5308C7.24931 14.8902 9.10979 16.7507 11.4692 18.054L12.8171 16.4417L12.841 16.4131C13.2114 15.97 13.5258 15.594 13.8178 15.3106C14.1286 15.0089 14.4588 14.7662 14.8793 14.6293C15.2998 14.4924 15.7096 14.4941 16.1385 14.555C16.5413 14.6122 17.0169 14.7311 17.5772 14.8712L17.6133 14.8802L19.2678 15.2939C19.2875 15.2988 19.307 15.3036 19.3262 15.3084C19.6484 15.3889 19.8991 15.4514 20.1204 15.5502C20.9545 15.9223 21.5494 16.6842 21.7081 17.5836C21.7503 17.8223 21.7501 18.0807 21.75 18.4128C21.75 18.4326 21.75 18.4527 21.75 18.473C21.75 18.4951 21.75 18.5168 21.75 18.5384C21.7502 18.9214 21.7504 19.2236 21.6838 19.5215C21.4417 20.6054 20.4384 21.5156 19.336 21.6514C19.0336 21.6886 18.7738 21.6631 18.4505 21.6314C18.4351 21.6299 18.4195 21.6284 18.4037 21.6268C15.7641 21.3693 13.3884 20.7099 11.3191 19.6701C8.24498 18.1255 5.87444 15.755 4.32982 12.6808C3.29011 10.6116 2.63066 8.2359 2.37312 5.59624C2.37158 5.58049 2.37005 5.5649 2.36854 5.54945C2.33685 5.22622 2.31138 4.96636 2.34861 4.66395C2.48433 3.56158 3.39454 2.55825 4.47851 2.31612C4.77636 2.24959 5.07858 2.24976 5.4616 2.24996ZM12.8576 18.7318C14.5381 19.452 16.4399 19.9281 18.5494 20.1339C18.9359 20.1716 19.0316 20.1775 19.1527 20.1626C19.6255 20.1044 20.1161 19.6593 20.2199 19.1945C20.2458 19.0784 20.25 18.9514 20.25 18.473C20.25 18.0524 20.2472 17.9363 20.231 17.8443C20.1588 17.4355 19.8884 17.0891 19.5093 16.92C19.424 16.8819 19.3121 16.8511 18.904 16.7491L17.2495 16.3354C16.6433 16.1839 16.2439 16.085 15.9277 16.0401C15.6288 15.9977 15.4697 16.0146 15.3437 16.0556C15.2176 16.0966 15.0791 16.1767 14.8625 16.3869C14.6333 16.6094 14.3687 16.9244 13.9679 17.4038L12.8576 18.7318ZM5.26816 11.1423L6.59612 10.0321C7.07553 9.63131 7.39057 9.3667 7.61303 9.13749C7.82328 8.92088 7.90332 8.78236 7.94436 8.65631C7.9854 8.53026 8.00225 8.37116 7.95983 8.07229C7.91494 7.75605 7.81607 7.35668 7.66452 6.75046L7.2509 5.09599C7.14888 4.68791 7.11802 4.57598 7.07997 4.49068C6.91082 4.11156 6.56449 3.84115 6.15566 3.76901C6.06368 3.75277 5.9476 3.74998 5.52697 3.74998C5.04854 3.74998 4.9216 3.75412 4.80551 3.78005C4.34062 3.88389 3.89558 4.37446 3.83737 4.84724C3.82246 4.96837 3.82832 5.0641 3.86603 5.45058C4.07185 7.56011 4.54801 9.46188 5.26816 11.1423Z" fill="#194973"/>
</svg>
