<svg width="132" height="24" viewBox="0 0 132 24" fill="none" xmlns="http://www.w3.org/2000/svg">
<path fill-rule="evenodd" clip-rule="evenodd" d="M12.6733 1.66978C12.5473 1.41286 12.2861 1.25004 12 1.25004C11.7138 1.25004 11.4526 1.41286 11.3266 1.66978L8.50035 7.43222L2.89073 8.25804C2.61 8.29936 2.37663 8.49558 2.28772 8.76505C2.19882 9.03451 2.2696 9.33108 2.47062 9.53135L6.67672 13.7218L5.26857 19.9242C5.20402 20.2085 5.3101 20.5045 5.54058 20.6831C5.77106 20.8616 6.08415 20.8905 6.34336 20.757L12 17.8437L17.6566 20.757C17.9158 20.8905 18.2289 20.8616 18.4593 20.6831C18.6898 20.5045 18.7959 20.2085 18.7313 19.9242L17.3232 13.7218L21.5293 9.53135C21.7303 9.33108 21.8011 9.03451 21.7122 8.76505C21.6233 8.49558 21.3899 8.29936 21.1092 8.25804L15.4996 7.43222L12.6733 1.66978Z" fill="#F2D8A7"/>
<path fill-rule="evenodd" clip-rule="evenodd" d="M39.6733 1.66978C39.5473 1.41286 39.2861 1.25004 39 1.25004C38.7138 1.25004 38.4526 1.41286 38.3266 1.66978L35.5003 7.43222L29.8907 8.25804C29.61 8.29936 29.3766 8.49558 29.2877 8.76505C29.1988 9.03451 29.2696 9.33108 29.4706 9.53135L33.6767 13.7218L32.2686 19.9242C32.204 20.2085 32.3101 20.5045 32.5406 20.6831C32.7711 20.8616 33.0841 20.8905 33.3434 20.757L39 17.8437L44.6566 20.757C44.9158 20.8905 45.2289 20.8616 45.4593 20.6831C45.6898 20.5045 45.7959 20.2085 45.7313 19.9242L44.3232 13.7218L48.5293 9.53135C48.7303 9.33108 48.8011 9.03451 48.7122 8.76505C48.6233 8.49558 48.3899 8.29936 48.1092 8.25804L42.4996 7.43222L39.6733 1.66978Z" fill="#F2D8A7"/>
<path fill-rule="evenodd" clip-rule="evenodd" d="M66.6733 1.66978C66.5473 1.41286 66.2861 1.25004 66 1.25004C65.7138 1.25004 65.4526 1.41286 65.3266 1.66978L62.5003 7.43222L56.8907 8.25804C56.61 8.29936 56.3766 8.49558 56.2877 8.76505C56.1988 9.03451 56.2696 9.33108 56.4706 9.53135L60.6767 13.7218L59.2686 19.9242C59.204 20.2085 59.3101 20.5045 59.5406 20.6831C59.7711 20.8616 60.0841 20.8905 60.3434 20.757L66 17.8437L71.6566 20.757C71.9158 20.8905 72.2289 20.8616 72.4593 20.6831C72.6898 20.5045 72.7959 20.2085 72.7313 19.9242L71.3232 13.7218L75.5293 9.53135C75.7303 9.33108 75.8011 9.03451 75.7122 8.76505C75.6233 8.49558 75.3899 8.29936 75.1092 8.25804L69.4996 7.43222L66.6733 1.66978Z" fill="#F2D8A7"/>
<path fill-rule="evenodd" clip-rule="evenodd" d="M93.6733 1.66978C93.5473 1.41286 93.2861 1.25004 93 1.25004C92.7138 1.25004 92.4526 1.41286 92.3266 1.66978L89.5003 7.43222L83.8907 8.25804C83.61 8.29936 83.3766 8.49558 83.2877 8.76505C83.1988 9.03451 83.2696 9.33108 83.4706 9.53135L87.6767 13.7218L86.2686 19.9242C86.204 20.2085 86.3101 20.5045 86.5406 20.6831C86.7711 20.8616 87.0841 20.8905 87.3434 20.757L93 17.8437L98.6566 20.757C98.9158 20.8905 99.2289 20.8616 99.4593 20.6831C99.6898 20.5045 99.7959 20.2085 99.7313 19.9242L98.3232 13.7218L102.529 9.53135C102.73 9.33108 102.801 9.03451 102.712 8.76505C102.623 8.49558 102.39 8.29936 102.109 8.25804L96.4996 7.43222L93.6733 1.66978Z" fill="#F2D8A7"/>
<path fill-rule="evenodd" clip-rule="evenodd" d="M120.673 1.66978C120.547 1.41286 120.286 1.25004 120 1.25004C119.714 1.25004 119.453 1.41286 119.327 1.66978L116.5 7.43222L110.891 8.25804C110.61 8.29936 110.377 8.49558 110.288 8.76505C110.199 9.03451 110.27 9.33108 110.471 9.53135L114.677 13.7218L113.269 19.9242C113.204 20.2085 113.31 20.5045 113.541 20.6831C113.771 20.8616 114.084 20.8905 114.343 20.757L120 17.8437L125.657 20.757C125.916 20.8905 126.229 20.8616 126.459 20.6831C126.69 20.5045 126.796 20.2085 126.731 19.9242L125.323 13.7218L129.529 9.53135C129.73 9.33108 129.801 9.03451 129.712 8.76505C129.623 8.49558 129.39 8.29936 129.109 8.25804L123.5 7.43222L120.673 1.66978Z" fill="#F2D8A7"/>
</svg>
